<mxfile host="app.diagrams.net" modified="2024-05-22T12:45:36.454Z" agent="Mozilla/5.0 (Windows NT 10.0; Win64; x64) AppleWebKit/537.36 (KHTML, like Gecko) Chrome/125.0.0.0 Safari/537.36" version="24.4.4" etag="KlmrryZb2xuW-LqEpzye" type="github">
  <diagram name="第 1 页" id="Z-73HVaenlI17Hd5q_95">
    <mxGraphModel>
      <root>
        <mxCell id="0" />
        <mxCell id="1" parent="0" />
      </root>
    </mxGraphModel>
  </diagram>
</mxfile>
